# xmcd CD database file
#
# Track frame offsets:
#	150
#	10566
#	20778
#	31574
#	39246
#	46972
#
# Disc length: 770 seconds
#
# Revision: 1
# Processed by: cddbd v1.5.1PL0 Copyright (c) Steve Scherf et al.
# Submitted via: CDex 1.51
#
DISCID=35030006
DTITLE=HAMBURGUESA VEGETAL - Azzurro Special Edition
DYEAR=2005
DGENRE=New Age
TTITLE0=Niña Ninja
TTITLE1=Atún
TTITLE2=Vinilo
TTITLE3=Sister Act IV
TTITLE4=Fósforo
TTITLE5=Twin Peaks
EXTD=YEAR: 2005
EXTT0=
EXTT1=
EXTT2=
EXTT3=
EXTT4=
EXTT5=
PLAYORDER=
